<?xml version="1.0" standalone="no"?><!DOCTYPE svg PUBLIC "-//W3C//DTD SVG 1.1//EN" "http://www.w3.org/Graphics/SVG/1.1/DTD/svg11.dtd"><svg t="1592222947936" class="icon" viewBox="0 0 1024 1024" version="1.1" xmlns="http://www.w3.org/2000/svg" p-id="9336" xmlns:xlink="http://www.w3.org/1999/xlink" width="200" height="200"><defs><style type="text/css"></style></defs><path d="M775.44 351.99l40.64-19.51 40.64 19.51-4.39-44.36 29.51-32.95-42.5-7.27-23.26-40.51-23.26 40.51-42.5 7.27 29.51 32.95zM646.41 204.52l28.36-13.61 28.36 13.61-3.06-30.95 20.59-23L691 145.5l-16.23-28.27-16.23 28.27-29.66 5.07 20.59 23z" fill="#ffffff" p-id="9337"></path><path d="M845.21 687.9l-46.46 33.44-32.5-8.51-7.68-77.55 201.5-224.99-290.3-49.66L512.48 86.65l-157.3 273.98-290.3 49.66 201.5 224.99-29.91 302.17 276.01-132.44 276.01 132.44-13-131.35 16.29-0.35 35.5 42.33 17.54-51.73 49.61-21.84-43.76-29.62-5.46-56.99z m-97.25 191.7L512.48 766.61 276.99 879.6l25.35-256.07-169.87-189.67 244.62-41.84L512.48 156.2l135.39 235.81 244.62 41.84-169.88 189.68 17.54 177.19-3.6 6.23 4.21-0.09 7.2 72.74z m68.96-108.8l-2.67 7.86-6.62-7.89-10.3 0.22 4.16-7.19-2.04-6.48 6.29 1.65 10.74-7.73 1.26 13.17 5.38 3.64-6.2 2.75zM85.96 706.44l-21.33-37.15-21.33 37.15-38.98 6.67 27.06 30.22-4.02 40.68 37.27-17.89 37.27 17.89-4.02-40.68 27.06-30.22z" fill="#ffffff" p-id="9338"></path></svg>